<?xml version="1.0" encoding="utf-8"?>
<!-- Generator: Adobe Illustrator 27.8.1, SVG Export Plug-In . SVG Version: 6.00 Build 0)  -->
<svg version="1.1" id="Layer_1" xmlns="http://www.w3.org/2000/svg" xmlns:xlink="http://www.w3.org/1999/xlink" x="0px" y="0px"
	 viewBox="0 0 266 73" style="enable-background:new 0 0 266 73;" xml:space="preserve">
<style type="text/css">
	.st0{fill:#FFFFFF;}
	.st1{fill:#0B4EB6;}
	.st2{fill:#859BB2;}
	.st3{fill:#4A7CAF;}
</style>
<g>
	<g>
		<g>
			<g>
				<path class="st0" d="M143.6,24.5v10.1c0,4.5-2.3,6.8-6.8,6.8h-16.9V17.7h16.9C141.3,17.7,143.6,20,143.6,24.5z M140.2,34.6V24.5
					c0-2.3-1.1-3.4-3.4-3.4h-13.5V38h13.5C139.1,38,140.2,36.8,140.2,34.6z"/>
				<path class="st0" d="M156.7,38h18.6v3.4h-21.9V17.7h21.9v3.4h-18.6v6.8h18.6v3.4h-18.6V38z"/>
				<path class="st0" d="M184.9,34.6V17.7h3.4v16.9c0,2.3,1.1,3.4,3.4,3.4h13.5v3.4h-13.5C187.1,41.3,184.9,39.1,184.9,34.6z"/>
				<path class="st0" d="M232.8,17.7v3.4h-10.1v20.3h-3.4V21.1h-10.1v-3.4H232.8z"/>
				<path class="st0" d="M257.6,36.3h-15.1l-2.9,5.1h-3.9l14.3-24.9l14.3,24.9h-3.9L257.6,36.3z M255.7,32.9l-5.6-9.7l-5.6,9.7
					H255.7z"/>
			</g>
		</g>
		<g>
			<g>
				<polygon class="st0" points="123.8,53.7 121,47.5 119.9,47.5 119.9,56.5 121,56.5 121,50 123.4,55.2 124.1,55.2 126.5,49.8 
					126.5,56.5 127.6,56.5 127.6,47.5 126.5,47.5 				"/>
				<path class="st0" d="M133.7,47.5l-3.3,9h1.2l0.7-2.1h3.9l0.7,2.1h1.2l-3.3-9H133.7z M132.6,53.4l1.6-4.6l1.6,4.6H132.6z"/>
				<polygon class="st0" points="146.4,54.6 141.9,47.5 140.8,47.5 140.8,56.5 141.9,56.5 141.9,49.5 146.5,56.5 147.5,56.5 
					147.5,47.5 146.4,47.5 				"/>
				<path class="st0" d="M153.6,47.5l-3.3,9h1.2l0.7-2.1h3.9l0.7,2.1h1.2l-3.3-9H153.6z M152.5,53.4l1.6-4.6l1.6,4.6H152.5z"/>
				<path class="st0" d="M163.5,52.8h2v0.5c0,0.5-0.1,0.9-0.2,1.3c-0.2,0.3-0.4,0.6-0.7,0.8c-0.3,0.2-0.7,0.3-1.1,0.3
					c-0.4,0-0.8-0.1-1.1-0.3c-0.3-0.2-0.6-0.4-0.7-0.7c-0.2-0.3-0.2-0.7-0.2-1.2v-2.7c0-0.5,0.1-0.9,0.2-1.3
					c0.2-0.3,0.4-0.6,0.7-0.8c0.3-0.2,0.7-0.3,1.1-0.3c0.3,0,0.6,0.1,0.9,0.2c0.3,0.1,0.5,0.3,0.7,0.6c0.2,0.2,0.3,0.5,0.4,0.9h1.2
					c-0.1-0.6-0.3-1-0.6-1.4c-0.3-0.4-0.6-0.7-1.1-0.9c-0.4-0.2-0.9-0.3-1.5-0.3c-0.7,0-1.2,0.1-1.7,0.4c-0.5,0.3-0.8,0.6-1.1,1.1
					c-0.2,0.5-0.4,1.1-0.4,1.8v2.7c0,0.7,0.1,1.2,0.4,1.7c0.2,0.5,0.6,0.8,1.1,1.1c0.5,0.2,1.1,0.4,1.7,0.4c0.7,0,1.2-0.1,1.7-0.4
					c0.5-0.3,0.8-0.6,1.1-1.2c0.2-0.5,0.4-1.1,0.4-1.8v-1.4h-3.1V52.8z"/>
				<polygon class="st0" points="170.3,47.5 169.7,47.5 169.7,56.5 170.3,56.5 170.8,56.5 175.5,56.5 175.5,55.5 170.8,55.5 
					170.8,52.5 174.8,52.5 174.8,51.5 170.8,51.5 170.8,48.5 175.5,48.5 175.5,47.5 170.8,47.5 				"/>
				<polygon class="st0" points="182.3,53.7 179.5,47.5 178.5,47.5 178.5,56.5 179.5,56.5 179.5,50 181.9,55.2 182.7,55.2 
					185.1,49.8 185.1,56.5 186.1,56.5 186.1,47.5 185.1,47.5 				"/>
				<polygon class="st0" points="190.1,47.5 189.5,47.5 189.5,56.5 190.1,56.5 190.5,56.5 195.2,56.5 195.2,55.5 190.5,55.5 
					190.5,52.5 194.6,52.5 194.6,51.5 190.5,51.5 190.5,48.5 195.2,48.5 195.2,47.5 190.5,47.5 				"/>
				<polygon class="st0" points="203.8,54.6 199.2,47.5 198.2,47.5 198.2,56.5 199.3,56.5 199.3,49.5 203.8,56.5 204.9,56.5 
					204.9,47.5 203.8,47.5 				"/>
				<polygon class="st0" points="207.5,48.5 210.1,48.5 210.1,56.5 211.2,56.5 211.2,48.5 213.8,48.5 213.8,47.5 207.5,47.5 				"/>
				<path class="st0" d="M223.8,52.8h2v0.5c0,0.5-0.1,0.9-0.2,1.3c-0.2,0.3-0.4,0.6-0.7,0.8c-0.3,0.2-0.7,0.3-1.1,0.3
					c-0.4,0-0.8-0.1-1.1-0.3c-0.3-0.2-0.6-0.4-0.7-0.7c-0.2-0.3-0.2-0.7-0.2-1.2v-2.7c0-0.5,0.1-0.9,0.2-1.3
					c0.2-0.3,0.4-0.6,0.7-0.8c0.3-0.2,0.7-0.3,1.1-0.3c0.3,0,0.6,0.1,0.9,0.2c0.3,0.1,0.5,0.3,0.7,0.6c0.2,0.2,0.3,0.5,0.4,0.9h1.2
					c-0.1-0.6-0.3-1-0.6-1.4c-0.3-0.4-0.6-0.7-1.1-0.9c-0.4-0.2-0.9-0.3-1.5-0.3c-0.7,0-1.2,0.1-1.7,0.4c-0.5,0.3-0.8,0.6-1.1,1.1
					c-0.2,0.5-0.4,1.1-0.4,1.8v2.7c0,0.7,0.1,1.2,0.4,1.7c0.2,0.5,0.6,0.8,1.1,1.1c0.5,0.2,1.1,0.4,1.7,0.4c0.7,0,1.2-0.1,1.7-0.4
					c0.5-0.3,0.8-0.6,1.1-1.2c0.2-0.5,0.4-1.1,0.4-1.8v-1.4h-3.1V52.8z"/>
				<path class="st0" d="M234.9,52.4c0.4-0.2,0.7-0.5,0.9-0.9c0.2-0.4,0.3-0.8,0.3-1.4c0-0.5-0.1-1-0.3-1.4
					c-0.2-0.4-0.5-0.7-0.9-0.9c-0.4-0.2-0.9-0.3-1.4-0.3h-2.5h-0.5H230v9h1.1v-3.8h2.3l1.9,3.8h1.3l-2.1-3.9
					C234.7,52.5,234.8,52.4,234.9,52.4z M231.1,48.5h2.5c0.3,0,0.5,0.1,0.8,0.2c0.2,0.1,0.4,0.3,0.5,0.6c0.1,0.2,0.2,0.5,0.2,0.8
					c0,0.3-0.1,0.6-0.2,0.8c-0.1,0.2-0.3,0.4-0.5,0.6c-0.2,0.1-0.5,0.2-0.8,0.2h-2.5V48.5z"/>
				<path class="st0" d="M244.1,47.8c-0.5-0.3-1-0.4-1.7-0.4c-0.6,0-1.2,0.1-1.7,0.4c-0.5,0.3-0.8,0.6-1.1,1.1
					c-0.3,0.5-0.4,1.1-0.4,1.8v2.5c0,0.7,0.1,1.3,0.4,1.8c0.3,0.5,0.6,0.9,1.1,1.1c0.5,0.3,1,0.4,1.7,0.4c0.6,0,1.2-0.1,1.7-0.4
					c0.5-0.3,0.8-0.6,1.1-1.1c0.3-0.5,0.4-1.1,0.4-1.8v-2.5c0-0.7-0.1-1.3-0.4-1.8C244.9,48.5,244.5,48.1,244.1,47.8z M244.5,53.3
					c0,0.5-0.1,0.9-0.3,1.2c-0.2,0.3-0.4,0.6-0.7,0.8c-0.3,0.2-0.7,0.3-1.1,0.3c-0.4,0-0.8-0.1-1.1-0.3c-0.3-0.2-0.6-0.4-0.7-0.8
					c-0.2-0.3-0.3-0.7-0.3-1.2v-2.6c0-0.5,0.1-0.9,0.3-1.2s0.4-0.6,0.7-0.8c0.3-0.2,0.7-0.3,1.1-0.3c0.4,0,0.8,0.1,1.1,0.3
					c0.3,0.2,0.6,0.4,0.7,0.8c0.2,0.3,0.3,0.7,0.3,1.2V53.3z"/>
				<path class="st0" d="M253.9,53.3c0,0.7-0.2,1.3-0.5,1.6c-0.4,0.4-0.9,0.6-1.6,0.6c-0.7,0-1.2-0.2-1.5-0.6
					c-0.4-0.4-0.5-0.9-0.5-1.6v-5.8h-1.1v5.8c0,0.7,0.1,1.3,0.4,1.8c0.2,0.5,0.6,0.9,1.1,1.1c0.5,0.3,1,0.4,1.7,0.4
					c0.7,0,1.3-0.1,1.7-0.4c0.5-0.3,0.8-0.6,1.1-1.1c0.2-0.5,0.4-1.1,0.4-1.8v-5.8h-1.1V53.3z"/>
				<path class="st0" d="M264.1,48.8c-0.2-0.4-0.5-0.7-0.9-1c-0.4-0.2-0.9-0.3-1.4-0.3h-2.4h-0.4h-0.6v9h1.1V53h2.4
					c0.5,0,1-0.1,1.4-0.3c0.4-0.2,0.7-0.6,0.9-1c0.2-0.4,0.3-0.9,0.3-1.4C264.4,49.7,264.3,49.2,264.1,48.8z M263.1,51.2
					c-0.1,0.3-0.3,0.5-0.6,0.6c-0.2,0.1-0.5,0.2-0.8,0.2h-2.5v-3.5h2.5c0.3,0,0.6,0.1,0.8,0.2c0.2,0.1,0.4,0.3,0.6,0.6
					c0.1,0.3,0.2,0.6,0.2,0.9C263.3,50.6,263.3,50.9,263.1,51.2z"/>
			</g>
		</g>
	</g>
	<polygon class="st1" points="38.3,18.3 54.7,2 71.4,18.6 54.7,35.1 	"/>
	<polygon class="st0" points="43.8,18.4 54.7,7.6 65.8,18.6 54.8,29.5 	"/>
	<polygon class="st1" points="38.3,54.2 54.7,37.9 71.4,54.5 54.7,71 	"/>
	<polygon class="st0" points="43.8,54.3 54.7,43.5 65.8,54.5 54.8,65.4 	"/>
	<polygon class="st2" points="56.2,36.3 72.7,20 89.4,36.6 72.7,53 	"/>
	<polygon class="st0" points="61.8,36.3 72.7,25.5 83.7,36.6 72.7,47.4 	"/>
	<polygon class="st3" points="74.2,54.2 90.6,37.9 107.3,54.5 90.6,71 	"/>
	<polygon class="st0" points="79.7,54.3 90.6,43.5 101.7,54.5 90.7,65.4 	"/>
	<polygon class="st2" points="20.3,36.2 36.8,19.9 53.5,36.5 36.8,53 	"/>
	<polygon class="st0" points="25.9,36.3 36.8,25.5 47.9,36.5 36.9,47.4 	"/>
	<polygon class="st3" points="2.4,54.1 18.9,37.8 35.6,54.4 18.9,70.9 	"/>
	<polygon class="st0" points="8,54.2 18.9,43.4 30,54.4 19,65.3 	"/>
</g>
</svg>
